<?xml version="1.0" encoding="utf-8"?>
<!-- Generator: Adobe Illustrator 19.0.0, SVG Export Plug-In . SVG Version: 6.00 Build 0)  -->
<svg version="1.1" id="图层_1" xmlns="http://www.w3.org/2000/svg" xmlns:xlink="http://www.w3.org/1999/xlink" x="0px" y="0px"
	 viewBox="0 0 163.1 55.7" style="enable-background:new 0 0 163.1 55.7;" xml:space="preserve">
<style type="text/css">
	.st0{fill:#1FB2CC;}
	.st1{clip-path:url(#XMLID_55_);fill:#1FB2CC;}
	.st2{fill:#FFFFFF;}
</style>
<g id="XMLID_648_">
	<g id="XMLID_685_">
		<g id="XMLID_76_">
			<g id="XMLID_77_">
				<defs>
					<path id="XMLID_78_" d="M23.2,47.9V42c-4.3-3.1-7.1-8.1-7.1-13.8c0-4,1.4-8,4.1-11c1-1.2,2.8-1.3,4-0.3c1.2,1,1.3,2.8,0.3,4
						c-1.8,2-2.7,4.7-2.7,7.4c0,6.2,5.1,11.3,11.3,11.3c6.2,0,11.3-5.1,11.3-11.3c0-2.7-1-5.3-2.7-7.4c-1-1.2-0.9-3,0.3-4
						c1.2-1,3-0.9,4,0.3c2.6,3.1,4.1,7,4.1,11c0,5.7-2.8,10.7-7.1,13.8v5.9h7.7C57.5,47.7,63,42.1,63,35.2c0-5.2-3.1-9.7-7.6-11.6
						c0-0.5,0.1-1,0.1-1.5c0-9.6-7.8-17.4-17.4-17.4c-5.7,0-10.7,2.7-13.9,7c-1.4-0.8-3.1-1.3-4.9-1.3c-5.5,0-9.9,4.4-9.9,9.9
						c0,1.1,0.2,2.2,0.5,3.2c-4.7,1.8-8.1,6.4-8.1,11.8c0,7,5.7,12.7,12.7,12.7L23.2,47.9L23.2,47.9z M33.1,35.7
						c-3.9,0-7.1-3.2-7.1-7.1s3.2-7.1,7.1-7.1c3.9,0,7.1,3.2,7.1,7.1C40.2,32.5,37,35.7,33.1,35.7z"/>
				</defs>
				<clipPath id="XMLID_54_">
					<use xlink:href="#XMLID_78_"  style="overflow:visible;"/>
				</clipPath>
			</g>
		</g>
		<g id="XMLID_67_">
			<g id="XMLID_73_">
				<path id="SVGID_9_" class="st0" d="M23.2,47.9V42c-4.3-3.1-7.1-8.1-7.1-13.8c0-4,1.4-8,4.1-11c1-1.2,2.8-1.3,4-0.3
					c1.2,1,1.3,2.8,0.3,4c-1.8,2-2.7,4.7-2.7,7.4c0,6.2,5.1,11.3,11.3,11.3c6.2,0,11.3-5.1,11.3-11.3c0-2.7-1-5.3-2.7-7.4
					c-1-1.2-0.9-3,0.3-4c1.2-1,3-0.9,4,0.3c2.6,3.1,4.1,7,4.1,11c0,5.7-2.8,10.7-7.1,13.8v5.9h7.7C57.5,47.7,63,42.1,63,35.2
					c0-5.2-3.1-9.7-7.6-11.6c0-0.5,0.1-1,0.1-1.5c0-9.6-7.8-17.4-17.4-17.4c-5.7,0-10.7,2.7-13.9,7c-1.4-0.8-3.1-1.3-4.9-1.3
					c-5.5,0-9.9,4.4-9.9,9.9c0,1.1,0.2,2.2,0.5,3.2c-4.7,1.8-8.1,6.4-8.1,11.8c0,7,5.7,12.7,12.7,12.7L23.2,47.9L23.2,47.9z
					 M33.1,35.7c-3.9,0-7.1-3.2-7.1-7.1s3.2-7.1,7.1-7.1c3.9,0,7.1,3.2,7.1,7.1C40.2,32.5,37,35.7,33.1,35.7z"/>
			</g>
			<g id="XMLID_68_">
				<defs>
					<path id="XMLID_69_" d="M23.2,47.9V42c-4.3-3.1-7.1-8.1-7.1-13.8c0-4,1.4-8,4.1-11c1-1.2,2.8-1.3,4-0.3c1.2,1,1.3,2.8,0.3,4
						c-1.8,2-2.7,4.7-2.7,7.4c0,6.2,5.1,11.3,11.3,11.3c6.2,0,11.3-5.1,11.3-11.3c0-2.7-1-5.3-2.7-7.4c-1-1.2-0.9-3,0.3-4
						c1.2-1,3-0.9,4,0.3c2.6,3.1,4.1,7,4.1,11c0,5.7-2.8,10.7-7.1,13.8v5.9h7.7C57.5,47.7,63,42.1,63,35.2c0-5.2-3.1-9.7-7.6-11.6
						c0-0.5,0.1-1,0.1-1.5c0-9.6-7.8-17.4-17.4-17.4c-5.7,0-10.7,2.7-13.9,7c-1.4-0.8-3.1-1.3-4.9-1.3c-5.5,0-9.9,4.4-9.9,9.9
						c0,1.1,0.2,2.2,0.5,3.2c-4.7,1.8-8.1,6.4-8.1,11.8c0,7,5.7,12.7,12.7,12.7L23.2,47.9L23.2,47.9z M33.1,35.7
						c-3.9,0-7.1-3.2-7.1-7.1s3.2-7.1,7.1-7.1c3.9,0,7.1,3.2,7.1,7.1C40.2,32.5,37,35.7,33.1,35.7z"/>
				</defs>
				<use xlink:href="#XMLID_69_"  style="overflow:visible;fill:#1FB2CC;"/>
				<clipPath id="XMLID_55_">
					<use xlink:href="#XMLID_69_"  style="overflow:visible;"/>
				</clipPath>
				<path id="XMLID_72_" class="st1" d="M15.7,14.8l-3.3,11.5c0,0,0.2,13.1,0.3,13.3c0.1,0.2,4.5,8.3,4.5,8.3h31.5l4.6-9.5
					l-1.7-18.7l-6.4-8.2c0,0-9.6,0.2-10.6,0c-1-0.2-5.6,0-5.6,0L15.7,14.8z"/>
			</g>
		</g>
		<g id="XMLID_58_">
			<g id="XMLID_59_">
				<defs>
					<path id="XMLID_60_" d="M23.2,47.9V42c-4.3-3.1-7.1-8.1-7.1-13.8c0-4,1.4-8,4.1-11c1-1.2,2.8-1.3,4-0.3c1.2,1,1.3,2.8,0.3,4
						c-1.8,2-2.7,4.7-2.7,7.4c0,6.2,5.1,11.3,11.3,11.3c6.2,0,11.3-5.1,11.3-11.3c0-2.7-1-5.3-2.7-7.4c-1-1.2-0.9-3,0.3-4
						c1.2-1,3-0.9,4,0.3c2.6,3.1,4.1,7,4.1,11c0,5.7-2.8,10.7-7.1,13.8v5.9h7.7C57.5,47.7,63,42.1,63,35.2c0-5.2-3.1-9.7-7.6-11.6
						c0-0.5,0.1-1,0.1-1.5c0-9.6-7.8-17.4-17.4-17.4c-5.7,0-10.7,2.7-13.9,7c-1.4-0.8-3.1-1.3-4.9-1.3c-5.5,0-9.9,4.4-9.9,9.9
						c0,1.1,0.2,2.2,0.5,3.2c-4.7,1.8-8.1,6.4-8.1,11.8c0,7,5.7,12.7,12.7,12.7L23.2,47.9L23.2,47.9z M33.1,35.7
						c-3.9,0-7.1-3.2-7.1-7.1s3.2-7.1,7.1-7.1c3.9,0,7.1,3.2,7.1,7.1C40.2,32.5,37,35.7,33.1,35.7z"/>
				</defs>
				<clipPath id="XMLID_56_">
					<use xlink:href="#XMLID_60_"  style="overflow:visible;"/>
				</clipPath>
			</g>
		</g>
	</g>
	<g id="XMLID_649_">
		<g id="XMLID_667_">
			<path id="XMLID_684_" class="st2" d="M71.2,47.4c0.1,0.1,0.2,0.2,0.3,0.3c0.1,0.1,0.3,0.1,0.5,0.2c0.2,0,0.3,0.1,0.5,0.1
				c0.1,0,0.3,0,0.4,0c0.2,0,0.3-0.1,0.4-0.1c0.1-0.1,0.2-0.1,0.3-0.2c0.1-0.1,0.1-0.2,0.1-0.4c0-0.2-0.1-0.4-0.3-0.5
				c-0.2-0.1-0.4-0.2-0.6-0.3c-0.3-0.1-0.5-0.1-0.8-0.2c-0.3-0.1-0.6-0.1-0.8-0.2c-0.3-0.1-0.5-0.3-0.6-0.5
				c-0.2-0.2-0.3-0.5-0.3-0.8c0-0.3,0.1-0.5,0.2-0.7c0.1-0.2,0.3-0.3,0.5-0.5c0.2-0.1,0.4-0.2,0.6-0.3c0.2-0.1,0.5-0.1,0.7-0.1
				c0.3,0,0.6,0,0.8,0.1c0.3,0.1,0.5,0.1,0.7,0.3c0.2,0.1,0.4,0.3,0.5,0.5c0.1,0.2,0.2,0.5,0.2,0.8h-0.9c0-0.2-0.1-0.3-0.1-0.4
				c-0.1-0.1-0.2-0.2-0.3-0.3c-0.1-0.1-0.2-0.1-0.4-0.1c-0.1,0-0.3,0-0.4,0c-0.1,0-0.3,0-0.4,0c-0.1,0-0.3,0.1-0.4,0.1
				c-0.1,0.1-0.2,0.1-0.3,0.2c-0.1,0.1-0.1,0.2-0.1,0.3c0,0.2,0.1,0.3,0.2,0.4c0.1,0.1,0.2,0.2,0.4,0.2c0.2,0.1,0.4,0.1,0.6,0.2
				c0.2,0,0.4,0.1,0.6,0.1c0.2,0,0.4,0.1,0.6,0.2c0.2,0.1,0.4,0.2,0.6,0.3c0.2,0.1,0.3,0.3,0.4,0.4c0.1,0.2,0.1,0.4,0.1,0.6
				c0,0.3-0.1,0.6-0.2,0.8s-0.3,0.4-0.5,0.5c-0.2,0.1-0.5,0.2-0.7,0.3c-0.3,0.1-0.5,0.1-0.8,0.1c-0.3,0-0.6,0-0.8-0.1
				c-0.3-0.1-0.5-0.2-0.7-0.3c-0.2-0.1-0.4-0.3-0.5-0.6c-0.1-0.2-0.2-0.5-0.2-0.8h0.9C71.1,47.1,71.1,47.2,71.2,47.4z"/>
			<path id="XMLID_683_" class="st2" d="M78.1,41.2V44h0c0.1-0.2,0.2-0.3,0.3-0.4c0.1-0.1,0.3-0.2,0.4-0.3c0.2-0.1,0.3-0.1,0.5-0.2
				c0.2,0,0.3-0.1,0.5-0.1c0.4,0,0.6,0,0.9,0.1c0.2,0.1,0.4,0.2,0.6,0.4c0.1,0.2,0.2,0.4,0.3,0.6c0.1,0.2,0.1,0.5,0.1,0.8v3.5h-0.9
				v-3.6c0-0.3-0.1-0.6-0.3-0.8c-0.2-0.2-0.5-0.3-0.8-0.3c-0.3,0-0.5,0-0.7,0.1c-0.2,0.1-0.4,0.2-0.5,0.4c-0.1,0.2-0.2,0.3-0.3,0.5
				c-0.1,0.2-0.1,0.4-0.1,0.7v3h-0.9v-7.4H78.1z"/>
			<path id="XMLID_682_" class="st2" d="M88,48.6v-0.8h0c-0.2,0.3-0.4,0.6-0.7,0.7c-0.3,0.2-0.6,0.2-1,0.2c-0.4,0-0.6,0-0.9-0.1
				c-0.2-0.1-0.4-0.2-0.6-0.4c-0.1-0.2-0.2-0.4-0.3-0.6c-0.1-0.2-0.1-0.5-0.1-0.8v-3.5h0.9v3.6c0,0.3,0.1,0.6,0.3,0.8
				c0.2,0.2,0.5,0.3,0.8,0.3c0.3,0,0.5,0,0.7-0.1c0.2-0.1,0.4-0.2,0.5-0.4c0.1-0.2,0.2-0.3,0.3-0.5c0.1-0.2,0.1-0.4,0.1-0.7v-3h0.9
				v5.4H88z"/>
			<path id="XMLID_681_" class="st2" d="M92.4,43.2v1.1h0c0.2-0.4,0.5-0.8,0.8-1c0.3-0.2,0.7-0.3,1.2-0.3V44c-0.4,0-0.7,0-0.9,0.1
				c-0.2,0.1-0.4,0.2-0.6,0.4c-0.2,0.2-0.3,0.4-0.3,0.7c-0.1,0.3-0.1,0.6-0.1,0.9v2.4h-0.9v-5.4H92.4z"/>
			<path id="XMLID_678_" class="st2" d="M100.1,48.2c-0.4,0.3-0.9,0.5-1.5,0.5c-0.4,0-0.8-0.1-1.1-0.2c-0.3-0.1-0.6-0.3-0.8-0.6
				c-0.2-0.2-0.4-0.5-0.5-0.9c-0.1-0.3-0.2-0.7-0.2-1.1c0-0.4,0.1-0.8,0.2-1.1c0.1-0.3,0.3-0.6,0.5-0.9c0.2-0.2,0.5-0.4,0.8-0.6
				c0.3-0.1,0.6-0.2,1-0.2c0.5,0,0.9,0.1,1.2,0.3c0.3,0.2,0.6,0.4,0.8,0.8c0.2,0.3,0.3,0.6,0.4,1c0.1,0.4,0.1,0.7,0.1,1h-4
				c0,0.2,0,0.5,0.1,0.7c0.1,0.2,0.2,0.4,0.3,0.6c0.1,0.2,0.3,0.3,0.5,0.4c0.2,0.1,0.5,0.1,0.8,0.1c0.4,0,0.7-0.1,0.9-0.3
				c0.2-0.2,0.4-0.4,0.5-0.8h0.9C100.8,47.5,100.5,47.9,100.1,48.2z M99.9,44.8c-0.1-0.2-0.2-0.3-0.3-0.5c-0.1-0.1-0.3-0.2-0.5-0.3
				c-0.2-0.1-0.4-0.1-0.6-0.1c-0.2,0-0.4,0-0.6,0.1c-0.2,0.1-0.3,0.2-0.5,0.3c-0.1,0.1-0.2,0.3-0.3,0.5C97,45,97,45.2,97,45.4h3.1
				C100,45.2,100,45,99.9,44.8z"/>
			<path id="XMLID_677_" class="st2" d="M104.1,43.2v0.8h0c0.4-0.6,0.9-1,1.7-1c0.4,0,0.6,0,0.9,0.1c0.2,0.1,0.4,0.2,0.6,0.4
				c0.1,0.2,0.2,0.4,0.3,0.6c0.1,0.2,0.1,0.5,0.1,0.8v3.5h-0.9v-3.6c0-0.3-0.1-0.6-0.3-0.8c-0.2-0.2-0.5-0.3-0.8-0.3
				c-0.3,0-0.5,0-0.7,0.1c-0.2,0.1-0.4,0.2-0.5,0.4c-0.1,0.2-0.2,0.3-0.3,0.5c-0.1,0.2-0.1,0.4-0.1,0.7v3h-0.9v-5.4H104.1z"/>
			<path id="XMLID_676_" class="st2" d="M112.6,49.3c-0.1,0.3-0.2,0.5-0.3,0.7c-0.1,0.2-0.2,0.3-0.3,0.4c-0.1,0.1-0.3,0.2-0.4,0.2
				c-0.1,0.1-0.3,0.1-0.5,0.1c-0.1,0-0.2,0-0.3,0c-0.1,0-0.2,0-0.3-0.1v-0.8c0.1,0,0.2,0.1,0.3,0.1c0.1,0,0.2,0,0.3,0
				c0.2,0,0.3,0,0.5-0.1c0.1-0.1,0.2-0.2,0.3-0.4l0.4-0.9l-2.1-5.3h1l1.6,4.4h0l1.5-4.4h0.9L112.6,49.3z"/>
			<path id="XMLID_675_" class="st2" d="M120.8,48.6v-0.8h0c-0.2,0.3-0.4,0.6-0.7,0.7c-0.3,0.2-0.6,0.2-1,0.2c-0.4,0-0.6,0-0.9-0.1
				c-0.2-0.1-0.4-0.2-0.6-0.4c-0.1-0.2-0.2-0.4-0.3-0.6c-0.1-0.2-0.1-0.5-0.1-0.8v-3.5h0.9v3.6c0,0.3,0.1,0.6,0.3,0.8
				c0.2,0.2,0.5,0.3,0.8,0.3c0.3,0,0.5,0,0.7-0.1c0.2-0.1,0.4-0.2,0.5-0.4c0.1-0.2,0.2-0.3,0.3-0.5c0.1-0.2,0.1-0.4,0.1-0.7v-3h0.9
				v5.4H120.8z"/>
			<path id="XMLID_674_" class="st2" d="M125.2,43.2v0.8h0c0.4-0.6,0.9-1,1.7-1c0.4,0,0.6,0,0.9,0.1c0.2,0.1,0.4,0.2,0.6,0.4
				c0.1,0.2,0.2,0.4,0.3,0.6c0.1,0.2,0.1,0.5,0.1,0.8v3.5h-0.9v-3.6c0-0.3-0.1-0.6-0.3-0.8c-0.2-0.2-0.5-0.3-0.8-0.3
				c-0.3,0-0.5,0-0.7,0.1c-0.2,0.1-0.4,0.2-0.5,0.4c-0.1,0.2-0.2,0.3-0.3,0.5c-0.1,0.2-0.1,0.4-0.1,0.7v3h-0.9v-5.4H125.2z"/>
			<path id="XMLID_673_" class="st2" d="M132.9,47.4v1.1h-1.1v-1.1H132.9z"/>
			<path id="XMLID_672_" class="st2" d="M139.1,44.1c-0.2-0.2-0.5-0.3-0.9-0.3c-0.3,0-0.6,0.1-0.8,0.2c-0.2,0.1-0.4,0.3-0.5,0.5
				c-0.1,0.2-0.2,0.4-0.3,0.7c-0.1,0.3-0.1,0.5-0.1,0.8c0,0.2,0,0.5,0.1,0.7c0.1,0.2,0.1,0.4,0.3,0.6c0.1,0.2,0.3,0.3,0.5,0.4
				c0.2,0.1,0.4,0.2,0.7,0.2c0.4,0,0.8-0.1,1-0.3c0.2-0.2,0.4-0.5,0.5-1h0.9c-0.1,0.7-0.3,1.2-0.7,1.5c-0.4,0.4-0.9,0.5-1.6,0.5
				c-0.4,0-0.8-0.1-1.1-0.2c-0.3-0.1-0.6-0.3-0.8-0.6c-0.2-0.2-0.4-0.5-0.5-0.9c-0.1-0.3-0.2-0.7-0.2-1.1c0-0.4,0.1-0.8,0.2-1.1
				c0.1-0.3,0.3-0.7,0.5-0.9c0.2-0.3,0.5-0.5,0.8-0.6c0.3-0.1,0.7-0.2,1.1-0.2c0.3,0,0.6,0,0.9,0.1c0.3,0.1,0.5,0.2,0.7,0.3
				c0.2,0.2,0.4,0.3,0.5,0.6c0.1,0.2,0.2,0.5,0.2,0.8h-0.9C139.5,44.6,139.3,44.3,139.1,44.1z"/>
			<path id="XMLID_669_" class="st2" d="M142.8,44.8c0.1-0.3,0.3-0.6,0.5-0.9c0.2-0.3,0.5-0.5,0.8-0.6c0.3-0.1,0.7-0.2,1.1-0.2
				c0.4,0,0.8,0.1,1.1,0.2c0.3,0.1,0.6,0.3,0.8,0.6c0.2,0.3,0.4,0.5,0.5,0.9c0.1,0.3,0.2,0.7,0.2,1.1c0,0.4-0.1,0.8-0.2,1.1
				c-0.1,0.3-0.3,0.6-0.5,0.9c-0.2,0.3-0.5,0.4-0.8,0.6c-0.3,0.1-0.7,0.2-1.1,0.2c-0.4,0-0.8-0.1-1.1-0.2c-0.3-0.1-0.6-0.3-0.8-0.6
				c-0.2-0.3-0.4-0.5-0.5-0.9c-0.1-0.3-0.2-0.7-0.2-1.1C142.6,45.5,142.7,45.1,142.8,44.8z M143.7,46.8c0.1,0.3,0.2,0.5,0.4,0.6
				c0.2,0.2,0.3,0.3,0.5,0.4c0.2,0.1,0.4,0.1,0.6,0.1s0.4,0,0.6-0.1c0.2-0.1,0.4-0.2,0.5-0.4c0.2-0.2,0.3-0.4,0.4-0.6
				c0.1-0.3,0.1-0.5,0.1-0.9c0-0.3,0-0.6-0.1-0.9c-0.1-0.3-0.2-0.5-0.4-0.6s-0.3-0.3-0.5-0.4c-0.2-0.1-0.4-0.1-0.6-0.1
				s-0.4,0-0.6,0.1c-0.2,0.1-0.4,0.2-0.5,0.4c-0.2,0.2-0.3,0.4-0.4,0.6c-0.1,0.3-0.1,0.5-0.1,0.9C143.6,46.2,143.6,46.5,143.7,46.8z
				"/>
			<path id="XMLID_668_" class="st2" d="M151.1,43.2V44h0c0.4-0.6,1-0.9,1.7-0.9c0.3,0,0.6,0.1,0.9,0.2c0.3,0.1,0.5,0.4,0.6,0.7
				c0.2-0.3,0.4-0.5,0.7-0.7c0.3-0.2,0.6-0.2,1-0.2c0.3,0,0.5,0,0.7,0.1c0.2,0.1,0.4,0.2,0.6,0.3c0.2,0.1,0.3,0.3,0.4,0.5
				c0.1,0.2,0.1,0.4,0.1,0.7v3.9h-0.9v-3.5c0-0.2,0-0.3,0-0.5c0-0.1-0.1-0.3-0.2-0.4c-0.1-0.1-0.2-0.2-0.3-0.3
				c-0.1-0.1-0.3-0.1-0.5-0.1c-0.4,0-0.8,0.1-1,0.4c-0.2,0.2-0.4,0.6-0.4,1v3.3h-0.9v-3.5c0-0.2,0-0.3,0-0.5c0-0.1-0.1-0.3-0.2-0.4
				c-0.1-0.1-0.2-0.2-0.3-0.2c-0.1-0.1-0.3-0.1-0.5-0.1c-0.3,0-0.5,0.1-0.7,0.2c-0.2,0.1-0.3,0.2-0.4,0.4c-0.1,0.1-0.2,0.3-0.2,0.5
				c-0.1,0.2-0.1,0.3-0.1,0.4v3.3h-0.9v-5.4H151.1z"/>
		</g>
		<path id="XMLID_666_" class="st2" d="M104.1,34.4l7.1-22.6h5.3l-1.9,6.3h4.2l4.2,16.3c0.2,0.9,0.7,1,1.7,1h2.8v3.6h-6
			c-1.7,0-2-0.7-2.5-2l-4.5-16.4h-0.7l-5.7,17c-0.4,1-0.9,1.4-2.1,1.4h-5.9v-3.7h2.7C103.5,35.3,103.8,35.2,104.1,34.4z"/>
		<g id="XMLID_654_">
			<g id="XMLID_663_">
				<g id="XMLID_664_">
					<path id="XMLID_665_" class="st2" d="M89.2,19.6l2,5.5l2.3-7.1h4l-4.4,13.3l1.8,4.4c0.2,0.4,0.5,0.6,0.9,0.6h1.7v2.8h-3.7
						c-1,0-1.3-0.5-1.7-1.2L91.3,36l-0.7,1.9c-0.3,0.8-0.7,1.1-1.8,1.2h-3.7v-2.7h1.7c0.2,0,0.6,0,0.7-0.2l1.8-5.3l-4.1-11.1H89.2z"
						/>
				</g>
			</g>
			<path id="XMLID_662_" class="st2" d="M85.1,18.6v-3.4h0.6c0.6,0,0.8-0.2,0.9-0.9l0.2-2.5h3.8l-0.1,1.7h7V17h-7.6l-0.4,0.7
				c-0.3,0.7-1.1,0.9-2.2,0.9H85.1z"/>
			<polygon id="XMLID_661_" class="st2" points="78.8,26.1 75.3,26.1 75.3,19 70.2,19 70.2,15.5 71.2,15.5 71,12.4 73.9,12.4 
				74,15.5 75.3,15.5 75.3,11.8 78.8,11.8 			"/>
			<polygon id="XMLID_660_" class="st2" points="75.4,11.8 79,11.8 79,15.5 80.3,15.5 80.4,12.4 83.2,12.4 83.1,15.5 84,15.5 84,19 
				79,19 79,26.1 75.4,26.1 			"/>
			<path id="XMLID_659_" class="st2" d="M70.3,25.5v-2.4c0.7,0.1,1.1-0.3,1.2-1.1l0.4-2h3.1L74.2,24c-0.3,1-0.7,1.5-1.7,1.5H70.3z"
				/>
			<path id="XMLID_658_" class="st2" d="M84,25.5h-1.9c-1.2,0-1.9-0.5-2.1-1.7l-0.8-3.7h3.1l0.4,2.1c0.2,0.7,0.4,0.8,1.3,0.8V25.5
				L84,25.5z"/>
			<path id="XMLID_655_" class="st2" d="M83,31H84v-3.3H83v-1.2h-3.3v1.2h-5.6v-1.2h-3.3v1.2h-0.6V31h0.6v2.6l3.8,2.5
				c0,0-0.7,0.4-1.5,0.4c-0.7,0-2.9,0-2.9,0V39h3.9c0.6,0,1.1-0.2,1.8-0.5l1.2-0.9l1.6,0.9c0.4,0.2,0.9,0.5,1.5,0.5H84v-2.6
				c0,0-1.1,0-2.1,0c-1,0-1.9-0.7-1.9-0.7l3-2.6L83,31L83,31z M79.8,32.1l-2.6,1.9L74,32v-1h5.7V32.1z"/>
		</g>
		<g id="XMLID_650_">
			<g id="XMLID_652_">
				<path id="XMLID_653_" class="st2" d="M130.3,36.4l4.1-10.7h-4.1v-3.9h27.3v3.9h-18.8l-3.7,9.6h17.5c0.5,0,0.7-0.2,0.7-0.6v-4.4
					h4.3v5.8c0,1.9-1,2.9-2.8,2.9h-24.5V36.4L130.3,36.4z"/>
			</g>
			<rect id="XMLID_651_" x="130.8" y="11.8" class="st2" width="26.8" height="3.9"/>
		</g>
	</g>
</g>
</svg>
